<?xml version="1.0" encoding="UTF-8" standalone="no"?>
<svg width="1024px" height="1024px" viewBox="0 0 1024 1024" version="1.1" xmlns="http://www.w3.org/2000/svg" xmlns:xlink="http://www.w3.org/1999/xlink" xmlns:sketch="http://www.bohemiancoding.com/sketch/ns">
    <title>Slice 1</title>
    <description>Created with Sketch (http://www.bohemiancoding.com/sketch)</description>
    <defs>
        <path id="path-1" d="M0,0 L1024,0 L1024,1024 L0,1024 L0,0 Z"></path>
    </defs>
    <g id="Page-1" stroke="none" stroke-width="1" fill="none" fill-rule="evenodd" sketch:type="MSPage">
        <g id="icon" sketch:type="MSLayerGroup">
            <g id="Group-3">
                <mask id="mask-2" sketch:name="Clip 2" fill="white">
                    <use xlink:href="#path-1"></use>
                </mask>
                <g id="Clip-2"></g>
                <path d="M808,278 L785.67,278 C763.937,278 757.869,282.025 745.026,301.264 L579,626.596 L579,854 L457,854 L457,626.596 L291.219,301.264 C278.382,282.025 272.563,278 250.83,278 L228,278 L228,171 L294.273,171 C339.688,171 359.443,177.856 386.093,221.438 L517.793,492 L519.649,492 L650.406,221.438 C676.075,177.856 696.811,171 742.229,171 L808,171 L808,278 Z M-1,1024 L1024,1024 L1024,0 L-1,0 L-1,1024 Z" id="Fill-1" fill="#FFFFFF" sketch:type="MSShapeGroup" mask="url(#mask-2)"></path>
            </g>
            <path d="M0,1024 L1023.783,1024 L1023.783,0.306 L0,0.306 L0,1024 Z" id="black-fill" fill="#000000" sketch:type="MSShapeGroup"></path>
            <path d="M457.6514,851.2363 L579.8434,851.2363 L579.8434,623.5103 L745.7674,298.2083 C758.6114,278.9643 764.5214,275.0803 786.2614,275.0803 L808.9754,275.0803 L808.9754,167.5533 L742.8024,167.5533 C697.3734,167.5533 676.6274,174.3343 650.9494,217.9303 L520.1464,488.5123 L518.2904,488.5123 L386.5424,217.9303 C359.8844,174.3343 340.1224,167.5533 294.6904,167.5533 L228.5204,167.5533 L228.5204,275.0803 L251.2314,275.0803 C272.9734,275.0803 278.8814,278.9643 291.7244,298.2083 L457.6514,623.5103 L457.6514,851.2363 Z" id="Fill-8" fill="#FFFFFF" sketch:type="MSShapeGroup"></path>
        </g>
    </g>
</svg>