<?xml version="1.0" encoding="UTF-8" standalone="no"?>
<svg width="1381px" height="1318px" viewBox="0 0 1381 1318" version="1.1" xmlns="http://www.w3.org/2000/svg" xmlns:xlink="http://www.w3.org/1999/xlink" xmlns:sketch="http://www.bohemiancoding.com/sketch/ns">
    <title>Slice 1</title>
    <description>Created with Sketch (http://www.bohemiancoding.com/sketch)</description>
    <defs>
        <path id="path-1" d="M0,1023.787 L1024,1023.787 L1024,0 L0,0 L0,1023.787 L0,1023.787 Z"></path>
        <path id="path-3" d="M228.6514,683.2363 L350.8434,683.2363 L350.8434,455.5103 L516.7674,130.2083 C529.6114,110.9643 535.5214,107.0803 557.2614,107.0803 L579.9754,107.0803 L579.9754,-0.4467 L513.8024,-0.4467 C468.3734,-0.4467 447.6274,6.3343 421.9494,49.9303 L291.1464,320.5123 L289.2904,320.5123 L157.5424,49.9303 C130.8844,6.3343 111.1224,-0.4467 65.6904,-0.4467 L-0.4796,-0.4467 L-0.4796,107.0803 L22.2314,107.0803 C43.9734,107.0803 49.8814,110.9643 62.7244,130.2083 L228.6514,455.5103 L228.6514,683.2363 L228.6514,683.2363 Z"></path>
    </defs>
    <g id="Page-1" stroke="none" stroke-width="1" fill="none" fill-rule="evenodd" sketch:type="MSPage">
        <g id="icon" sketch:type="MSLayerGroup" transform="translate(179.000000, 294.000000)">
            <g id="Group-9">
                <mask id="mask-2" sketch:name="Clip 8" fill="white">
                    <use xlink:href="#path-1"></use>
                </mask>
                <g id="Clip-8"></g>
                <path d="M-5,107 L1029,107 L1029,1028.787 L-5,1028.787 L-5,107 Z" id="Fill-7" fill="#BD1026" sketch:type="MSShapeGroup" mask="url(#mask-2)"></path>
            </g>
            <g id="Group-12" transform="translate(229.000000, 168.000000)">
                <mask id="mask-4" sketch:name="Clip 11" fill="white">
                    <use xlink:href="#path-3"></use>
                </mask>
                <g id="Clip-11"></g>
                <path d="M-5.4796,-5.4467 L584.9754,-5.4467 L584.9754,688.2363 L-5.4796,688.2363 L-5.4796,-5.4467 Z" id="Fill-10" fill="#FFFFFF" sketch:type="MSShapeGroup" mask="url(#mask-4)"></path>
            </g>
        </g>
        <polygon id="roof" fill="#BD1026" sketch:type="MSShapeGroup" points="690.5 1 1381 461 0 461 "></polygon>
    </g>
</svg>