<svg width="36" height="36" viewBox="0 0 36 36" fill="none" xmlns="http://www.w3.org/2000/svg">
<path fill-rule="evenodd" clip-rule="evenodd" d="M0 36H26L36 26V0H0L0 36Z" fill="#BD1026"/>
<path fill-rule="evenodd" clip-rule="evenodd" d="M26 36L36 26H26V36Z" fill="#800918"/>
<path fill-rule="evenodd" clip-rule="evenodd" d="M16.921 26.5H20.079V20.5045L24.3667 11.9395L24.4495 11.8164C24.728 11.4162 24.9001 11.3309 25.4125 11.3309H26V8.5H24.2902C23.116 8.5 22.5795 8.67856 21.9163 9.82619L18.5362 16.9501H18.4877L15.0837 9.82619C14.3941 8.67856 13.884 8.5 12.7098 8.5H11V11.3309H11.5867C12.1487 11.3309 12.3009 11.4332 12.6333 11.9395L16.921 20.5045V26.5Z" fill="#FFFFFE"/>
</svg>
